<svg width="147" height="56" viewBox="0 0 147 56" fill="none" xmlns="http://www.w3.org/2000/svg">
<g id="Logo">
<path id="Vector" d="M33.8409 49.5784C28.2209 50.1684 22.8909 48.4384 18.8009 45.1684C17.2209 46.4184 15.5909 47.5984 13.9609 48.7884C19.3509 53.6284 26.6909 56.2584 34.4609 55.4384C41.8109 54.6684 48.1409 50.9484 52.4109 45.5984C50.8409 44.3784 49.1709 43.2884 47.3809 42.4384C44.0709 46.3284 39.3209 48.9984 33.8509 49.5784H33.8409Z" fill="#FD4349"/>
<g id="Group">
<path id="Vector_2" d="M67.5095 41.9584H63.3495L58.7895 34.5984C58.1995 33.6584 57.6095 32.5084 57.0195 31.1584C57.2895 32.2284 57.4195 33.1484 57.4195 33.8884V41.9584H53.2695V25.2984H58.0995L61.9795 31.3984C62.7495 32.6084 63.3395 33.6784 63.7395 34.5984C63.4795 33.1784 63.3495 31.7184 63.3495 30.2284V25.2984H67.5095V41.9584Z" fill="#222728"/>
<path id="Vector_3" d="M75.5299 25.2984V41.9584H70.4199V25.2984H75.5299Z" fill="#222728"/>
<path id="Vector_4" d="M93.2692 41.9584H87.5992L85.1692 35.5884H83.5592V41.9584H78.4492V25.2984H87.1492C89.0692 25.2984 90.5592 25.7484 91.6192 26.6484C92.6792 27.5484 93.2092 28.7384 93.2092 30.2084C93.2092 31.1684 93.0092 32.0184 92.6192 32.7584C92.2292 33.4984 91.4392 34.1484 90.2492 34.7084L93.2692 41.9684V41.9584ZM83.5492 32.0184H85.7392C86.3792 32.0184 86.8992 31.8884 87.2892 31.6184C87.6792 31.3484 87.8792 30.9584 87.8792 30.4384C87.8792 29.3684 87.2192 28.8384 85.9092 28.8384H83.5492V32.0284V32.0184Z" fill="#222728"/>
<path id="Vector_5" d="M113.799 25.2984V41.9584H109.049V30.0484L105.969 41.9584H102.719L99.5194 30.0484V41.9584H95.6895V25.2984H102.369L104.789 34.1484L107.099 25.2984H113.809H113.799Z" fill="#222728"/>
<path id="Vector_6" d="M125.9 41.9584L124.96 38.6784H120.5L119.5 41.9584H115.35L120.49 25.2984H125.9L131.13 41.9584H125.91H125.9ZM121.36 35.0384H124.06L122.71 30.2084L121.36 35.0384Z" fill="#222728"/>
<path id="Vector_7" d="M146.89 41.9584H142.73L138.17 34.5984C137.58 33.6584 136.99 32.5084 136.4 31.1584C136.67 32.2284 136.8 33.1484 136.8 33.8884V41.9584H132.65V25.2984H137.48L141.36 31.3984C142.13 32.6084 142.72 33.6784 143.12 34.5984C142.86 33.1784 142.73 31.7184 142.73 30.2284V25.2984H146.89V41.9584Z" fill="#222728"/>
</g>
<path id="Vector_8" d="M63.78 10.7284L53.94 13.8984C49.01 4.98844 39.1 -0.571563 28.34 0.558437C13.99 2.07844 3.58 14.9284 5.09 29.2884C5.1 29.3984 5.11 29.4984 5.13 29.6084L0 31.2584L1.81 36.2584L65.59 15.7284L63.78 10.7284ZM28.91 5.98844C37.04 5.12844 44.55 9.10844 48.61 15.6084L10.46 27.8884C9.74 16.8684 17.84 7.15844 28.92 5.98844H28.91Z" fill="#222728"/>
</g>
</svg>
