<svg xmlns="http://www.w3.org/2000/svg" version="1.1" xmlns:xlink="http://www.w3.org/1999/xlink" xmlns:svgjs="http://svgjs.dev/svgjs" viewBox="0 0 2400 800" opacity="0.4"><defs><linearGradient x1="50%" y1="0%" x2="50%" y2="100%" id="sssurf-grad"><stop stop-color="hsl(208, 77%, 50%)" stop-opacity="1" offset="0%"></stop><stop stop-color="hsl(208, 74%, 93%)" stop-opacity="1" offset="100%"></stop></linearGradient></defs><g fill="url(#sssurf-grad)" transform="matrix(1,0,0,1,5.82373046875,159.1012077331543)"><path d="M-10,10C75.41666666666666,23.75,231.25,95.16666666666667,400,76C568.75,56.83333333333333,633.3333333333333,-76.16666666666667,800,-82C966.6666666666667,-87.83333333333333,1033.3333333333333,34.25,1200,48C1366.6666666666667,61.75,1433.3333333333333,-22.666666666666664,1600,-16C1766.6666666666667,-9.333333333333334,1833.3333333333333,77.08333333333333,2000,80C2166.6666666666665,82.91666666666667,2264.5833333333335,-68.66666666666667,2400,-2C2535.4166666666665,64.66666666666667,3254.1666666666665,212.08333333333331,2650,400C2045.8333333333335,587.9166666666667,156.25,795.8333333333334,-500,900" transform="matrix(1,0,0,1,0,58)" opacity="0.05"></path><path d="M-10,10C75.41666666666666,23.75,231.25,95.16666666666667,400,76C568.75,56.83333333333333,633.3333333333333,-76.16666666666667,800,-82C966.6666666666667,-87.83333333333333,1033.3333333333333,34.25,1200,48C1366.6666666666667,61.75,1433.3333333333333,-22.666666666666664,1600,-16C1766.6666666666667,-9.333333333333334,1833.3333333333333,77.08333333333333,2000,80C2166.6666666666665,82.91666666666667,2264.5833333333335,-68.66666666666667,2400,-2C2535.4166666666665,64.66666666666667,3254.1666666666665,212.08333333333331,2650,400C2045.8333333333335,587.9166666666667,156.25,795.8333333333334,-500,900" transform="matrix(1,0,0,1,0,116)" opacity="0.21"></path><path d="M-10,10C75.41666666666666,23.75,231.25,95.16666666666667,400,76C568.75,56.83333333333333,633.3333333333333,-76.16666666666667,800,-82C966.6666666666667,-87.83333333333333,1033.3333333333333,34.25,1200,48C1366.6666666666667,61.75,1433.3333333333333,-22.666666666666664,1600,-16C1766.6666666666667,-9.333333333333334,1833.3333333333333,77.08333333333333,2000,80C2166.6666666666665,82.91666666666667,2264.5833333333335,-68.66666666666667,2400,-2C2535.4166666666665,64.66666666666667,3254.1666666666665,212.08333333333331,2650,400C2045.8333333333335,587.9166666666667,156.25,795.8333333333334,-500,900" transform="matrix(1,0,0,1,0,174)" opacity="0.37"></path><path d="M-10,10C75.41666666666666,23.75,231.25,95.16666666666667,400,76C568.75,56.83333333333333,633.3333333333333,-76.16666666666667,800,-82C966.6666666666667,-87.83333333333333,1033.3333333333333,34.25,1200,48C1366.6666666666667,61.75,1433.3333333333333,-22.666666666666664,1600,-16C1766.6666666666667,-9.333333333333334,1833.3333333333333,77.08333333333333,2000,80C2166.6666666666665,82.91666666666667,2264.5833333333335,-68.66666666666667,2400,-2C2535.4166666666665,64.66666666666667,3254.1666666666665,212.08333333333331,2650,400C2045.8333333333335,587.9166666666667,156.25,795.8333333333334,-500,900" transform="matrix(1,0,0,1,0,232)" opacity="0.53"></path><path d="M-10,10C75.41666666666666,23.75,231.25,95.16666666666667,400,76C568.75,56.83333333333333,633.3333333333333,-76.16666666666667,800,-82C966.6666666666667,-87.83333333333333,1033.3333333333333,34.25,1200,48C1366.6666666666667,61.75,1433.3333333333333,-22.666666666666664,1600,-16C1766.6666666666667,-9.333333333333334,1833.3333333333333,77.08333333333333,2000,80C2166.6666666666665,82.91666666666667,2264.5833333333335,-68.66666666666667,2400,-2C2535.4166666666665,64.66666666666667,3254.1666666666665,212.08333333333331,2650,400C2045.8333333333335,587.9166666666667,156.25,795.8333333333334,-500,900" transform="matrix(1,0,0,1,0,290)" opacity="0.68"></path><path d="M-10,10C75.41666666666666,23.75,231.25,95.16666666666667,400,76C568.75,56.83333333333333,633.3333333333333,-76.16666666666667,800,-82C966.6666666666667,-87.83333333333333,1033.3333333333333,34.25,1200,48C1366.6666666666667,61.75,1433.3333333333333,-22.666666666666664,1600,-16C1766.6666666666667,-9.333333333333334,1833.3333333333333,77.08333333333333,2000,80C2166.6666666666665,82.91666666666667,2264.5833333333335,-68.66666666666667,2400,-2C2535.4166666666665,64.66666666666667,3254.1666666666665,212.08333333333331,2650,400C2045.8333333333335,587.9166666666667,156.25,795.8333333333334,-500,900" transform="matrix(1,0,0,1,0,348)" opacity="0.84"></path><path d="M-10,10C75.41666666666666,23.75,231.25,95.16666666666667,400,76C568.75,56.83333333333333,633.3333333333333,-76.16666666666667,800,-82C966.6666666666667,-87.83333333333333,1033.3333333333333,34.25,1200,48C1366.6666666666667,61.75,1433.3333333333333,-22.666666666666664,1600,-16C1766.6666666666667,-9.333333333333334,1833.3333333333333,77.08333333333333,2000,80C2166.6666666666665,82.91666666666667,2264.5833333333335,-68.66666666666667,2400,-2C2535.4166666666665,64.66666666666667,3254.1666666666665,212.08333333333331,2650,400C2045.8333333333335,587.9166666666667,156.25,795.8333333333334,-500,900" transform="matrix(1,0,0,1,0,406)" opacity="1.00"></path></g></svg>