<svg width="84" height="64" viewBox="0 0 84 64" fill="none" xmlns="http://www.w3.org/2000/svg">
<g id="Icon" clip-path="url(#clip0_664_10517)">
<g id="Layer 1">
<g id="Group">
<path id="Vector" fill-rule="evenodd" clip-rule="evenodd" d="M64.6505 57.0528V62.7203H69.5994C71.8825 62.7203 73.817 61.9295 75.4072 60.2883C77.1036 58.5324 77.7498 56.313 77.7498 53.9023V40.633C77.7498 40.2163 77.7583 39.7954 77.7753 39.3745C77.7881 38.9876 77.8519 38.5922 77.9199 38.2138C77.9794 37.8269 78.09 37.423 78.2728 37.0743L78.2813 37.0616C78.4726 36.7427 78.7192 36.4451 78.9743 36.1815C79.2974 35.8201 79.6971 35.5565 80.1435 35.3907C80.6622 35.1824 81.2319 35.0463 81.7761 34.957C82.4139 34.8337 83.0729 34.7742 83.7234 34.7444V28.2904C83.2132 28.2607 82.703 28.2097 82.2013 28.1161C81.7251 28.0353 81.2319 27.9291 80.777 27.7717C80.3816 27.6484 80.0032 27.4741 79.6716 27.2318C79.3995 27.0405 79.1273 26.8364 78.8893 26.5983C78.6597 26.3729 78.4854 26.0923 78.3408 25.799C78.226 25.5439 78.1112 25.2845 78.0219 25.0167C77.9241 24.7403 77.8816 24.4087 77.8519 24.1196C77.8221 23.8305 77.7966 23.5414 77.7796 23.2565C77.7626 22.9716 77.7541 22.6868 77.7541 22.4019V8.84767C77.7541 7.29582 77.4565 5.78649 76.7634 4.39195C76.1087 3.06969 75.1563 2.01103 73.9148 1.20747C72.6096 0.365641 71.1555 0.00425164 69.6079 0.00425164H64.659V5.6972H65.9898C66.7253 5.6972 67.4736 5.829 68.1241 6.18614C68.7023 6.50076 69.187 6.92593 69.5101 7.49565C69.8035 7.98884 70.0288 8.51179 70.1734 9.06451C70.3094 9.57895 70.3732 10.1104 70.3732 10.6461V23.7454C70.3732 25.31 70.5348 27.2148 71.2533 28.6306C71.8613 29.8295 72.8392 30.6288 74.0722 31.1348L74.2422 31.2071V31.73L74.0594 31.798C73.4812 32.0064 72.8562 32.2742 72.3417 32.6314C71.8868 32.929 71.5254 33.3754 71.2406 33.8303C70.8579 34.4298 70.6623 35.1824 70.5603 35.8796C70.403 36.9808 70.3732 38.1458 70.3732 39.2554V51.7213C70.3732 52.4568 70.335 53.2178 70.1989 53.9491C70.0799 54.5273 69.8673 55.0673 69.5611 55.586C69.2295 56.1132 68.7618 56.4746 68.1836 56.7127C67.4991 56.9805 66.7168 57.0528 65.9855 57.0528H64.6548H64.6505ZM19.0686 5.69295V0H14.1197C12.5721 0 11.1138 0.357138 9.81279 1.20322C8.57131 2.00678 7.61895 3.06544 6.95994 4.3877C6.26692 5.78224 5.96931 7.29582 5.96931 8.84342V22.3977C5.96931 22.6825 5.9608 22.9674 5.9438 23.2522C5.92679 23.5414 5.90128 23.8305 5.87152 24.1153C5.84176 24.4044 5.79499 24.7361 5.70146 25.0124C5.61217 25.276 5.49738 25.5396 5.37833 25.799C5.23803 26.0881 5.05946 26.3687 4.83412 26.594C4.60028 26.8321 4.32817 27.0362 4.05607 27.2233C3.72019 27.4656 3.34179 27.6442 2.95489 27.7632C2.49572 27.9248 2.00252 28.0268 1.52209 28.1076C1.02039 28.1969 0.510197 28.2522 0 28.2819V34.7359C0.650502 34.7657 1.30951 34.8252 1.93875 34.9485C2.49146 35.042 3.05693 35.1739 3.57138 35.3822C4.02631 35.548 4.42596 35.8116 4.74483 36.1687C5.00419 36.4366 5.24653 36.7342 5.4421 37.0573L5.45061 37.0701C5.63343 37.4187 5.73972 37.8226 5.79924 38.201C5.87152 38.5837 5.93104 38.9791 5.94805 39.366C5.96506 39.7869 5.97356 40.2035 5.97356 40.6245V53.8938C5.97356 56.3045 6.61556 58.5239 8.31622 60.2798C9.90208 61.9209 11.8408 62.7118 14.124 62.7118H19.0729V57.0443H17.7421C17.0108 57.0443 16.2285 56.972 15.5398 56.6999C14.9658 56.4618 14.4981 56.1004 14.1622 55.569C13.8604 55.0588 13.652 54.5188 13.5287 53.9321C13.3927 53.2093 13.3544 52.4483 13.3544 51.7127V39.2469C13.3544 38.1372 13.3247 36.9723 13.1673 35.8711C13.0696 35.1739 12.8697 34.4213 12.4871 33.8218C12.198 33.3669 11.8408 32.9205 11.3774 32.6186C10.8672 32.2657 10.2465 32.0021 9.66399 31.7895L9.48117 31.7215V31.1986L9.65123 31.1263C10.8885 30.6161 11.8621 29.8168 12.4701 28.6221C13.1886 27.2063 13.3502 25.3015 13.3502 23.7369V10.6376C13.3502 10.1019 13.4139 9.57045 13.55 9.056C13.6988 8.50329 13.9241 7.98034 14.2132 7.4914C14.5406 6.91743 15.0253 6.49226 15.6035 6.17764C16.254 5.8205 17.0023 5.6887 17.7379 5.6887H19.0686V5.69295Z" fill="#3A3A3A"/>
<path id="Vector_2" d="M54.1829 32.5123L49.8887 39.5913L35.076 64L32.2784 52.6354L42.7927 35.3142L25.4418 24.8424L22.6484 13.4777L47.0911 28.2309L54.1829 32.5123Z" fill="#3A3A3A"/>
<path id="Vector_3" d="M57.0697 13.4395H65.1776L56.6318 28.4733L49.54 24.1919L57.0697 13.4395Z" fill="#2D64D9"/>
</g>
</g>
</g>
<defs>
<clipPath id="clip0_664_10517">
<rect width="83.7191" height="64" fill="white"/>
</clipPath>
</defs>
</svg>
